<?xml version="1.0" encoding="UTF-8"?>
<svg width="1150" height="675" viewBox="0 0 1150 675" version="1.1" xmlns="http://www.w3.org/2000/svg" xmlns:xlink="http://www.w3.org/1999/xlink">
  <g stroke="none" stroke-width="1" fill="none" fill-rule="evenodd">
    <rect x="0" y="-125" width="1005" height="271"/>
    <rect x="0" y="568" width="1005" height="247"/>
    <rect x="0" y="146" width="1005" height="422"/>
    <g transform="translate(69 -1301)">
      <path d="M538.132 2105v-99.04c0-55.23-44.77-100-100-100H201.92c-55.228 0-100-44.772-100-100v-220.343c0-14.11-2.985-28.06-8.76-40.932l-34.4-76.678c-5.774-12.873-8.76-26.822-8.76-40.93v-71.456c0-51.283 41.574-92.856 92.858-92.856h493.564c4.746 0 8.593-3.848 8.593-8.594v-2.086c0-3.594 2.914-6.507 6.508-6.507 3.593 0 6.507 2.913 6.507 6.507v22.32c0 3.497 2.835 6.333 6.334 6.333 3.498 0 6.334-2.836 6.334-6.334V1237.7c0-3.7 3-6.7 6.7-6.7 3.702 0 6.702 3 6.702 6.7v48.827c0 3.597 2.916 6.513 6.513 6.513s6.513-2.916 6.513-6.513v-43.107c0-3.57 2.894-6.465 6.464-6.465 3.57 0 6.465 2.895 6.465 6.465V1274.157c0 3.634 2.946 6.58 6.58 6.58s6.58-2.946 6.58-6.58v-17.725c0-3.497 2.835-6.332 6.332-6.332h.12c3.498 0 6.333 2.835 6.333 6.332s2.835 6.332 6.332 6.332H906" stroke="#005CFF" stroke-dasharray="2"/>
      <circle fill="#2648E6" cx="49" cy="1377" r="6"/>
    </g>
  </g>
</svg>