<?xml version="1.0" encoding="UTF-8"?>
<svg width="1150" height="675" viewBox="0 0 1150 675" version="1.1" xmlns="http://www.w3.org/2000/svg" xmlns:xlink="http://www.w3.org/1999/xlink">
  <g stroke="none" stroke-width="1" fill="none" fill-rule="evenodd">
    <rect x="0" y="549" width="1005" height="271"/>
    <rect x="0" y="164" width="1005" height="385"/>
    <g transform="translate(69 -627)">
      <path d="M905.907 1263h17.706c38.874 0 70.387-31.513 70.387-70.387V786.937c0-55.228-44.772-100-100-100H606.417c-25.072 0-47.02 16.836-53.517 41.05-6.497 24.217-28.444 41.053-53.516 41.053H129.34c-55.23 0-100-44.772-100-100v-31.237c0-55.228 44.77-100 100-100h652.108c55.228 0 100-44.77 100-100V127.45c0-55.228-44.772-100-100-100H360.733c-3.1 0-5.615-2.513-5.615-5.614 0-3.1-2.514-5.614-5.615-5.614h-.64c-3.455 0-6.255 2.8-6.255 6.255V35.27c0 3.647-2.957 6.604-6.605 6.604-3.648 0-6.604-2.957-6.604-6.604V6.61c0-3.65-2.96-6.61-6.61-6.61-3.65 0-6.61 2.96-6.61 6.61v42.577c0 3.62-2.934 6.555-6.554 6.555s-6.555-2.935-6.555-6.555V6.43c0-3.552-2.877-6.43-6.428-6.43-3.55 0-6.43 2.878-6.43 6.43v28.977c0 3.572-2.894 6.467-6.466 6.467s-6.467-2.895-6.467-6.467v-12.66c0-3.603-2.922-6.524-6.526-6.524h-.91c-3.1 0-5.614 2.513-5.614 5.614 0 3.1-2.514 5.615-5.615 5.615H6" stroke="#005CFF" stroke-dasharray="2"/>
      <path d="M538.132 2105v-99.04c0-55.23-44.77-100-100-100H201.92c-55.228 0-100-44.772-100-100v-220.343c0-14.11-2.985-28.06-8.76-40.932l-34.4-76.678c-5.774-12.873-8.76-26.822-8.76-40.93v-71.456c0-51.283 41.574-92.856 92.858-92.856h493.564c4.746 0 8.593-3.848 8.593-8.594v-2.086c0-3.594 2.914-6.507 6.508-6.507 3.593 0 6.507 2.913 6.507 6.507v22.32c0 3.497 2.835 6.333 6.334 6.333 3.498 0 6.334-2.836 6.334-6.334V1237.7c0-3.7 3-6.7 6.7-6.7 3.702 0 6.702 3 6.702 6.7v48.827c0 3.597 2.916 6.513 6.513 6.513s6.513-2.916 6.513-6.513v-43.107c0-3.57 2.894-6.465 6.464-6.465 3.57 0 6.465 2.895 6.465 6.465V1274.157c0 3.634 2.946 6.58 6.58 6.58s6.58-2.946 6.58-6.58v-17.725c0-3.497 2.835-6.332 6.332-6.332h.12c3.498 0 6.333 2.835 6.333 6.332s2.835 6.332 6.332 6.332H906" stroke="#005CFF" stroke-dasharray="2"/>
      <circle fill="#2648E6" cx="648" cy="687" r="6"/>
    </g>
  </g>
</svg>