<svg width="975" height="220" xmlns="http://www.w3.org/2000/svg"><defs><radialGradient id="a" gradientTransform="matrix(.29405 .7553 -.33888 .65538 .6 -.125)" r="72.407%" fy="73.255%" fx="50%" cy="73.255%"><stop offset="0%" stop-color="#0303EB"/><stop offset="100%" stop-color="#001EFF"/></radialGradient></defs><title>background</title><path fill="none" d="M-1-1h582v402H-1z"/><g><title>Layer 1</title><g stroke="null" fill-rule="evenodd" fill="none"><path fill="url(#a)" d="M-1 189.456c91.688 18.06 164.403 18.06 218.147 0 80.615-27.088 194.748-88.942 327.636-68.346 132.89 20.595 252.27 68.346 431.217 68.346V-234H-1v423.456z"/><path fill="#001EFF" d="M-1 106.117c111.93 38.938 194.768 49.364 248.51 31.28 80.62-27.127 205.703-157.87 327.853-125.504C697.513 44.258 858.748 162.623 976 106.117V-490c0-5.523-4.49-10-10.03-10H835.387c-123.833 0-253.877 38.956-377.71 38.956C335.548-461.044 219.63-500 97.502-500H9.032C3.49-500-1-495.523-1-490v596.117z"/></g></g></svg>